<?xml version="1.0" standalone="no"?>
<!DOCTYPE svg PUBLIC "-//W3C//DTD SVG 20010904//EN"
 "http://www.w3.org/TR/2001/REC-SVG-20010904/DTD/svg10.dtd">
<svg version="1.0" xmlns="http://www.w3.org/2000/svg"
 width="503.000000pt" height="496.000000pt" viewBox="0 0 503.000000 496.000000"
 preserveAspectRatio="xMidYMid meet">

<g transform="translate(0.000000,496.000000) scale(0.100000,-0.100000)"
fill="#000000" stroke="none">
<path d="M695 4900 c-11 -4 -31 -20 -45 -35 -25 -26 -25 -30 -28 -216 -3 -181
-2 -191 19 -225 42 -69 -91 -64 1852 -64 l1764 0 34 23 c57 38 60 52 57 265
l-3 194 -37 34 -38 34 -1777 -1 c-978 0 -1787 -4 -1798 -9z"/>
<path d="M1382 4048 c5 -120 8 -139 21 -149 5 -3 9 -12 10 -20 5 -29 48 -87
84 -112 85 -59 54 -57 931 -57 787 0 893 4 876 31 -3 5 1 6 9 4 22 -9 108 75
133 130 21 43 24 65 24 168 l0 117 -1046 0 -1047 0 5 -112z"/>
<path d="M3680 4062 c0 -129 -14 -202 -55 -287 -42 -86 -112 -162 -187 -205
-32 -17 -58 -36 -58 -41 0 -12 1148 -4 1180 9 14 5 36 22 50 37 l25 27 0 243
c0 243 0 243 -24 269 -13 14 -27 23 -31 21 -5 -3 -10 2 -14 10 -5 13 -64 15
-446 15 l-440 0 0 -98z"/>
<path d="M1690 3505 c0 -3 0 -592 0 -1310 0 -718 0 -1309 0 -1315 0 -7 253
-10 740 -10 l740 0 0 1321 0 1320 -124 -4 c-117 -3 -127 -5 -161 -31 -19 -15
-44 -45 -55 -66 -20 -38 -20 -61 -20 -1114 l0 -1074 -30 -32 c-27 -29 -34 -31
-84 -28 -30 1 -53 5 -50 7 2 2 -6 20 -18 39 l-21 34 -4 1077 -4 1076 -24 35
c-35 51 -87 75 -156 74 -64 -1 -102 -22 -141 -77 l-23 -32 -5 -1088 -5 -1089
-33 -29 c-44 -39 -90 -39 -134 0 l-33 29 -5 1096 -5 1095 -40 41 c-21 22 -55
45 -75 50 -35 10 -230 14 -230 5z"/>
<path d="M3376 2818 c1 -13 3 -153 3 -313 l1 -290 317 2 c421 4 396 -14 401
283 4 222 -3 268 -50 312 l-30 28 -322 0 -323 0 3 -22z"/>
<path d="M3380 1170 l0 -310 596 2 c552 3 597 4 608 20 7 10 16 15 19 11 4 -3
7 1 7 9 0 9 7 21 15 28 12 10 15 49 15 231 0 209 -8 278 -30 264 -6 -4 -9 -1
-8 6 2 8 -12 21 -31 31 -32 16 -82 17 -613 18 l-578 0 0 -310z"/>
<path d="M1415 661 c-44 -11 -86 -35 -122 -70 -55 -52 -66 -85 -71 -208 l-4
-113 31 -29 c29 -28 36 -29 134 -33 56 -2 572 -2 1146 -1 l1045 2 30 31 c31
30 31 32 31 133 -1 88 -4 109 -25 151 -31 62 -86 108 -151 129 -46 15 -146 17
-1033 16 -539 -1 -994 -4 -1011 -8z"/>
</g>
</svg>
